<?xml version="1.0" encoding="UTF-8" standalone="no"?>

<svg
   width="710"
   height="500"
   viewBox="0 0 710 500"
   version="1.1"
   id="svg5"
   xmlns="http://www.w3.org/2000/svg"
   xmlns:svg="http://www.w3.org/2000/svg">
  <g
     id="layer1">
    <path
       id="path5071"
       style="fill:#000000"
       d="M 349.6,35.9 C 202.9,57 83.9,73.7 55.7,80.7 27.5,87.7 0,120 0,160 c 0,20 4.6,33.7 13.6,52.4 v 0 c 4.1,10.2 18.1,30.9 19.2,30.9 0,0 1.5,-3 3.4,-7.1 17.3,-38.9 54.4,-66.8 114.1,-88 50.2,-17.3 107.3,-29.4 210.5,-43.8 182.9,-25.7 266.7,-19.3 317.4,24.1 7.5,6.4 15.8,15.1 18.1,18.5 0.3,1.1 1.5,2.2 1.8,2.2 0.7,0 5.6,-13.2 8.6,-25.3 C 709.4,112.1 710,100 710,90 710,40 686.5,8.6 636.5,1.2 630.7,0.3 620,0 620,0 V 0 C 600.9,0.9 550.7,8.1 349.6,35.9 Z" />
    <path
       style="fill:#000000"
       d="m 142.8,227.1 c -13.9,-15.8 -24.9,-29.4 -24.9,-30.6 0,-0.7 5.2,-22.6 12,-48.3 0.7,-3.4 0.7,-3.4 17,-3.4 18.1,0 16.6,-1.1 12.4,12.8 -3,11.3 -6.8,27.2 -6.8,30.2 0,2.2 1.5,4.9 9,12.8 9.4,10.2 14.3,16.2 13.6,16.6 0,0 -4.9,3.4 -10.5,7.5 -5.6,3.7 -11.3,7.9 -12.4,9 -1.8,1.5 -1.8,1.5 -9.4,-6.4 z"
       id="person1-arm" />
    <path
       style="fill:#000000"
       d="m 622.1,418.3 c -17.7,-57.4 -15.1,-52.1 -35.9,-72.9 -18.5,-18.1 -18.5,-18.1 -23.8,0.3 -11.3,41.1 -8.3,35.5 -31.7,62.3 -34.7,39.6 -35.9,40.8 -44.5,40.8 -9,0 -15.8,-7.1 -15.8,-16.6 0,-6.4 1.1,-8.6 9.8,-18.5 3.4,-3.7 10.5,-11.7 15.8,-17.7 4.9,-5.6 12.8,-14.7 17,-19.2 9,-10.2 7.9,-7.5 15.4,-36.2 3,-12.4 7.5,-27.9 9.4,-34.7 3.4,-12 3.4,-12 3.4,-65.7 0,-58.2 0,-58.2 5.2,-65.3 1.1,-1.5 4.9,-4.5 7.5,-5.6 4.9,-2.2 4.9,-2.2 36.2,-2.2 36.2,0 30.6,1.1 52.1,-13.2 13.6,-9 14.7,-9.8 19.6,-9.8 9,0 15.8,6.8 15.8,16.2 0,6.8 -2.2,9.4 -18.1,20.4 -28.7,19.6 -23.8,18.1 -49.1,18.1 -21.9,0 -21.9,0 -22.2,49.8 0,37 0,50.6 0.7,52.1 0.3,0.7 10.9,12 23,24.5 12,12.4 19.6,19.2 23,25.3 3,6 4.5,14.3 8.6,29.1 4.1,14.3 9.4,32.1 11.7,39.3 5.2,17.3 5.2,20.4 2.2,25.3 -4.5,7.5 -16.2,9.4 -22.2,4.5 -6,-3.7 -7.1,-10.9 -13.6,-30.2 z"
       id="person2" />
    <path
       id="path5898"
       style="fill:#000000"
       d="m 206.3,498.8 c -2.3,-1.1 -4.5,-3.4 -5.6,-5.3 -2.2,-3.7 -1.8,-2.2 -10.5,-45.7 -3.4,-17.7 -6.8,-33.2 -7.1,-34 -0.3,-0.3 -8.3,-9 -18.1,-18.8 -17.3,-17.7 -17.3,-17.7 -21.5,-5.2 -12.4,36.2 -15.4,43.4 -18.8,46.4 -1.5,1.5 -16.2,15.4 -32.5,31.7 C 75.1,484.4 65,494 61,498 c -1,1 -4,2 -6,2 -10,0 -17.4,-5.7 -18.8,-15.5 -0.7,-8.3 0,-10.2 33.6,-43.4 30.6,-30.6 30.6,-30.6 42.7,-65.3 6.4,-18.8 15.5,-44.1 21.2,-58.5 5.2,-14.3 11.3,-30.2 13.2,-34.7 10.9,-28.7 15.4,-38.5 20,-41.5 3.4,-2.2 20.4,-10.9 47.2,-23.8 16.2,-7.9 20.4,-10.2 21.1,-12 7.9,-27.9 17,-52.5 19.6,-55.1 7.5,-7.5 20.7,-5.6 25.7,3.4 2.2,4.5 1.5,6.4 -10.2,43 -11.3,34.7 -11.3,34.7 -38.5,48.7 -14.7,7.5 -27.5,14.3 -27.9,14.7 -2.2,2.2 -35.2,85.7 -35.2,89.1 0,0.7 6.4,8.3 14.7,17 27.2,27.2 29.4,29.8 30.6,32.5 1.1,2.6 17,85 17,88.4 0,3 -4.5,9.4 -8.3,11.7 -2,0.9 -4.7,1.3 -7.7,1.3 -3,0 -6.9,-0.3 -8.6,-1.1 z" />
  </g>
  <g
     id="layer2"
     style="display:inline">
    <circle
       style="fill:#000000"
       id="person1-head"
       cx="198.4"
       cy="173.8"
       r="28.3" />
    <circle
       style="fill:#000000"
       id="person2-head"
       cx="566.1"
       cy="127.3"
       r="28.3" />
  </g>
</svg>
